<svg width="193" height="193" viewBox="0 0 193 193" fill="none" xmlns="http://www.w3.org/2000/svg">
<path fill-rule="evenodd" clip-rule="evenodd" d="M96.1252 0C149.214 0 192.25 43.0367 192.25 96.1252C192.25 149.214 149.214 192.25 96.1252 192.25C43.0368 192.25 0.000161687 149.214 0 96.1252C0 43.0367 43.0367 0 96.1252 0ZM107.287 155.265C106.957 155.401 106.957 155.867 107.287 156.004L131.115 165.872C131.444 166.008 131.444 166.475 131.115 166.611L118.987 171.634C118.889 171.675 118.778 171.675 118.68 171.634L93.3744 161.154C93.2764 161.113 93.1663 161.113 93.0683 161.154L60.3626 174.699C60.0409 174.832 60.0317 175.283 60.3491 175.427C71.2613 180.358 83.3726 183.103 96.1252 183.103C102.695 183.103 109.094 182.373 115.247 180.992C115.27 180.987 115.291 180.98 115.313 180.972L128.211 175.63C128.232 175.621 128.232 175.591 128.211 175.582C128.19 175.573 128.19 175.543 128.211 175.534L141.269 170.126C141.306 170.11 141.347 170.11 141.384 170.126C141.421 170.141 141.462 170.141 141.499 170.126L142.507 169.708C142.528 169.699 142.548 169.689 142.567 169.676C150.595 164.597 157.734 158.24 163.698 150.891C163.866 150.684 163.786 150.374 163.54 150.272L141.593 141.183C141.495 141.142 141.385 141.142 141.287 141.183L107.287 155.265ZM155.507 95.3499C155.178 95.4862 155.178 95.9526 155.507 96.089L179.946 106.211C180.275 106.347 180.275 106.814 179.946 106.95L167.817 111.973C167.719 112.014 167.609 112.014 167.511 111.973L141.594 101.239C141.496 101.198 141.386 101.198 141.288 101.239L107.287 115.321C106.957 115.458 106.957 115.924 107.287 116.061L131.725 126.183C132.055 126.319 132.055 126.785 131.726 126.922L119.598 131.945C119.5 131.986 119.39 131.986 119.292 131.945L93.3745 121.211C93.2764 121.17 93.1663 121.17 93.0683 121.211L59.0677 135.294C58.7384 135.43 58.7384 135.896 59.0677 136.033L83.5065 146.154C83.8358 146.291 83.8358 146.757 83.5065 146.893L71.3783 151.917C71.2803 151.957 71.1701 151.957 71.0721 151.917L45.1548 141.183C45.0569 141.142 44.9467 141.142 44.8488 141.183L27.2786 148.459C27.0364 148.559 26.9546 148.861 27.1143 149.069C33.0726 156.824 40.3079 163.546 48.5069 168.92C48.6173 168.993 48.7564 169.005 48.8783 168.955L181.039 114.216C181.161 114.166 181.251 114.058 181.277 113.929C182.473 108.182 183.103 102.227 183.103 96.1252C183.103 92.2756 182.852 88.4843 182.367 84.7668C182.333 84.5068 182.062 84.3508 181.819 84.4512L155.507 95.3499ZM155.506 135.294C155.177 135.43 155.177 135.896 155.506 136.033L169.697 141.909C169.877 141.984 170.086 141.917 170.189 141.751C173.074 137.078 175.529 132.111 177.499 126.906C177.622 126.581 177.297 126.268 176.975 126.401L155.506 135.294ZM107.287 75.3783C106.957 75.5147 106.957 75.981 107.287 76.1174L131.716 86.2357C132.045 86.3721 132.045 86.8384 131.716 86.9748L119.588 91.998C119.49 92.0386 119.38 92.0386 119.282 91.998L93.3745 81.2674C93.2764 81.2268 93.1663 81.2268 93.0683 81.2674L59.0676 95.3499C58.7384 95.4862 58.7384 95.9526 59.0676 96.089L83.497 106.207C83.8262 106.344 83.8262 106.81 83.497 106.946L71.3687 111.97C71.2707 112.01 71.1606 112.01 71.0626 111.97L45.1542 101.239C45.0562 101.198 44.9461 101.198 44.8481 101.239L11.5483 115.031C11.3687 115.105 11.2685 115.298 11.3116 115.487C11.3609 115.704 11.411 115.92 11.4618 116.135C11.4912 116.26 11.5791 116.363 11.6976 116.412L35.2774 126.179C35.6066 126.315 35.6066 126.782 35.2774 126.918L23.1491 131.941C23.0511 131.982 22.941 131.982 22.843 131.941L16.4263 129.283C16.0981 129.147 15.77 129.474 15.9077 129.802C17.41 133.376 19.1439 136.829 21.0913 140.141C21.1921 140.313 21.404 140.383 21.5877 140.307L180.079 74.6624C180.263 74.5863 180.363 74.3866 180.313 74.194C179.774 72.1201 179.161 70.0764 178.476 68.0657C178.402 67.8477 178.159 67.7385 177.946 67.8266L167.807 72.0264C167.709 72.067 167.599 72.067 167.501 72.0264L141.593 61.2964C141.495 61.2558 141.385 61.2558 141.287 61.2964L107.287 75.3783ZM107.287 35.4351C106.957 35.5715 106.957 36.0378 107.287 36.1742L131.707 46.2881C132.036 46.4244 132.036 46.8908 131.707 47.0272L119.579 52.051C119.481 52.0916 119.371 52.0916 119.273 52.051L93.3738 41.3248C93.2758 41.2842 93.1657 41.2842 93.0677 41.3248L59.0671 55.4067C58.7378 55.5431 58.7378 56.0094 59.0671 56.1458L83.4874 66.2596C83.8166 66.396 83.8166 66.8624 83.4874 66.9987L71.3591 72.0219C71.2611 72.0625 71.151 72.0625 71.053 72.0219L45.1542 61.2958C45.0562 61.2552 44.9461 61.2552 44.8481 61.2958L11.9153 74.9356C11.7981 74.9842 11.7109 75.0854 11.6804 75.2085C11.6137 75.4781 11.548 75.7481 11.4837 76.0187C11.4385 76.2091 11.5387 76.4038 11.7195 76.4787L35.2672 86.2312C35.5964 86.3676 35.5964 86.834 35.2672 86.9703L23.1395 91.9935C23.0415 92.0341 22.9314 92.0341 22.8334 91.9935L10.1632 86.7461C9.91685 86.6441 9.64155 86.807 9.61411 87.0722C9.30625 90.0479 9.14737 93.0682 9.14737 96.1252C9.14738 99.0449 9.29238 101.931 9.57354 104.777C9.59983 105.043 9.87576 105.207 10.1228 105.105L163.288 41.6667C163.535 41.5644 163.614 41.2533 163.444 41.0465C157.155 33.3683 149.577 26.7861 141.042 21.6288C140.933 21.5632 140.8 21.5533 140.683 21.6018L107.287 35.4351ZM155.507 55.4067C155.177 55.543 155.178 56.0094 155.507 56.1458L176.603 64.883C176.927 65.0172 177.253 64.6995 177.125 64.3731C175.127 59.2804 172.662 54.4224 169.784 49.8507C169.68 49.6862 169.473 49.6208 169.294 49.6952L155.507 55.4067ZM96.1252 9.14737C83.7411 9.14737 71.9617 11.7357 61.298 16.4006C60.9769 16.5411 60.9834 16.9962 61.3073 17.1304L83.4784 26.3132C83.8077 26.4496 83.8077 26.916 83.4784 27.0524L71.3489 32.0756C71.2509 32.1161 71.1408 32.1161 71.0428 32.0756L49.2529 23.0501C49.1317 22.9999 48.9934 23.0123 48.8832 23.0837C40.7481 28.3562 33.5502 34.9511 27.5924 42.5635C27.4299 42.7711 27.511 43.0759 27.7545 43.1768L35.2583 46.2848C35.5875 46.4212 35.5875 46.8876 35.2583 47.024L23.1306 52.0471C23.0326 52.0877 22.9225 52.0877 22.8244 52.0471L21.7829 51.6155C21.5997 51.5395 21.3885 51.6092 21.2872 51.7797C19.3552 55.0331 17.6291 58.423 16.1273 61.9319C15.987 62.2596 16.3155 62.5891 16.6448 62.4527L128.521 16.115C128.85 15.9787 128.85 15.5137 128.519 15.381C118.507 11.3605 107.575 9.14737 96.1252 9.14737Z" fill="black"/>
</svg>
