<svg width="774" height="216" viewBox="0 0 774 216" fill="none" xmlns="http://www.w3.org/2000/svg">
<path d="M272.216 82.236H301.648C304.26 82.236 306.599 82.6309 308.664 83.4206C310.79 84.2103 312.582 85.3038 314.04 86.701C315.498 88.0982 316.592 89.8295 317.321 91.8949C318.11 93.8996 318.505 96.1169 318.505 98.5468C318.505 100.977 318.171 103.042 317.503 104.743C316.896 106.383 316.045 107.75 314.952 108.844C313.919 109.937 312.704 110.757 311.307 111.304C309.97 111.851 308.573 112.154 307.115 112.215V112.762C308.512 112.762 310.001 113.035 311.58 113.582C313.22 114.129 314.709 115.009 316.045 116.224C317.442 117.379 318.596 118.897 319.508 120.78C320.419 122.603 320.875 124.881 320.875 127.615C320.875 130.166 320.449 132.565 319.599 134.813C318.809 137 317.685 138.914 316.227 140.554C314.769 142.194 313.038 143.5 311.033 144.472C309.029 145.383 306.842 145.839 304.473 145.839H272.216V82.236ZM284.244 135.633H301.01C303.318 135.633 305.11 135.056 306.386 133.902C307.662 132.687 308.3 130.956 308.3 128.708V125.61C308.3 123.362 307.662 121.631 306.386 120.416C305.11 119.201 303.318 118.594 301.01 118.594H284.244V135.633ZM284.244 108.752H299.096C301.283 108.752 302.984 108.175 304.199 107.021C305.414 105.806 306.022 104.136 306.022 102.009V99.1847C306.022 97.0585 305.414 95.4183 304.199 94.2641C302.984 93.0491 301.283 92.4417 299.096 92.4417H284.244V108.752ZM371.455 82.236L392.413 145.839H379.838L370.088 114.858L364.256 93.6262H363.983L358.151 114.858L348.401 145.839H336.191L357.149 82.236H371.455ZM430.7 146.932C425.233 146.932 420.586 145.96 416.759 144.016C412.992 142.073 409.742 139.521 407.009 136.362L415.118 128.526C417.305 131.077 419.735 133.021 422.408 134.358C425.142 135.694 428.149 136.362 431.429 136.362C435.135 136.362 437.929 135.573 439.812 133.993C441.695 132.353 442.637 130.166 442.637 127.432C442.637 125.306 442.03 123.575 440.815 122.238C439.6 120.902 437.322 119.93 433.981 119.323L427.966 118.411C415.27 116.407 408.922 110.241 408.922 99.9136C408.922 97.0585 409.438 94.4767 410.471 92.1683C411.565 89.8599 413.114 87.8856 415.118 86.2454C417.123 84.6052 419.523 83.3599 422.317 82.5094C425.172 81.5982 428.392 81.1426 431.976 81.1426C436.775 81.1426 440.966 81.9323 444.551 83.5118C448.135 85.0912 451.202 87.43 453.754 90.5281L445.553 98.2734C443.974 96.3295 442.06 94.7501 439.812 93.5351C437.565 92.3202 434.74 91.7127 431.338 91.7127C427.875 91.7127 425.263 92.3809 423.502 93.7174C421.801 94.9931 420.95 96.8155 420.95 99.1847C420.95 101.615 421.649 103.407 423.046 104.561C424.443 105.715 426.691 106.565 429.789 107.112L435.712 108.206C442.151 109.36 446.889 111.425 449.927 114.402C453.025 117.318 454.574 121.418 454.574 126.703C454.574 129.741 454.027 132.505 452.934 134.995C451.901 137.425 450.352 139.551 448.287 141.374C446.282 143.136 443.791 144.502 440.815 145.474C437.899 146.446 434.527 146.932 430.7 146.932ZM496.246 117.044L487.772 127.068V145.839H475.744V82.236H487.772V113.582H488.228L497.249 101.645L513.013 82.236H526.863L504.721 108.752L528.686 145.839H514.38L496.246 117.044ZM546.612 145.839V82.236H588.528V92.8973H558.64V108.297H585.066V118.958H558.64V135.178H588.528V145.839H546.612ZM635.329 92.8973V145.839H623.301V92.8973H605.259V82.236H653.371V92.8973H635.329ZM691.037 146.932C685.57 146.932 680.923 145.96 677.096 144.016C673.329 142.073 670.079 139.521 667.346 136.362L675.455 128.526C677.642 131.077 680.072 133.021 682.745 134.358C685.479 135.694 688.486 136.362 691.766 136.362C695.472 136.362 698.266 135.573 700.149 133.993C702.032 132.353 702.974 130.166 702.974 127.432C702.974 125.306 702.367 123.575 701.152 122.238C699.937 120.902 697.659 119.93 694.318 119.323L688.303 118.411C675.607 116.407 669.259 110.241 669.259 99.9136C669.259 97.0585 669.775 94.4767 670.808 92.1683C671.902 89.8599 673.451 87.8856 675.455 86.2454C677.46 84.6052 679.86 83.3599 682.654 82.5094C685.509 81.5982 688.729 81.1426 692.313 81.1426C697.112 81.1426 701.304 81.9323 704.888 83.5118C708.472 85.0912 711.539 87.43 714.091 90.5281L705.89 98.2734C704.311 96.3295 702.397 94.7501 700.149 93.5351C697.902 92.3202 695.077 91.7127 691.675 91.7127C688.212 91.7127 685.6 92.3809 683.839 93.7174C682.138 94.9931 681.287 96.8155 681.287 99.1847C681.287 101.615 681.986 103.407 683.383 104.561C684.78 105.715 687.028 106.565 690.126 107.112L696.049 108.206C702.488 109.36 707.226 111.425 710.264 114.402C713.362 117.318 714.911 121.418 714.911 126.703C714.911 129.741 714.364 132.505 713.271 134.995C712.238 137.425 710.689 139.551 708.624 141.374C706.619 143.136 704.128 144.502 701.152 145.474C698.236 146.446 694.864 146.932 691.037 146.932Z" fill="white"/>
<path fill-rule="evenodd" clip-rule="evenodd" d="M110.877 9.74316C163.966 9.74316 207.002 52.7799 207.002 105.868C207.002 158.957 163.966 201.994 110.877 201.994C57.7888 201.994 14.7521 158.957 14.752 105.868C14.752 52.7799 57.7887 9.74316 110.877 9.74316ZM122.039 165.008C121.709 165.144 121.709 165.611 122.039 165.747L145.867 175.615C146.196 175.751 146.196 176.218 145.867 176.354L133.739 181.377C133.641 181.418 133.53 181.418 133.432 181.377L108.126 170.897C108.028 170.856 107.918 170.856 107.82 170.897L75.1146 184.442C74.7928 184.575 74.7837 185.027 75.101 185.17C86.0132 190.101 98.1245 192.846 110.877 192.846C117.447 192.846 123.846 192.116 129.999 190.735C130.021 190.73 130.043 190.723 130.064 190.715L142.963 185.373C142.984 185.364 142.984 185.334 142.963 185.325C142.942 185.316 142.942 185.286 142.963 185.277L156.021 179.869C156.058 179.854 156.099 179.854 156.136 179.869C156.173 179.884 156.214 179.884 156.251 179.869L157.259 179.451C157.28 179.442 157.3 179.432 157.319 179.42C165.347 174.34 172.486 167.984 178.45 160.634C178.618 160.427 178.538 160.117 178.292 160.015L156.345 150.926C156.247 150.885 156.137 150.885 156.039 150.926L122.039 165.008ZM170.259 105.093C169.93 105.229 169.93 105.696 170.259 105.832L194.698 115.954C195.027 116.091 195.027 116.557 194.698 116.693L182.569 121.717C182.471 121.757 182.361 121.757 182.263 121.717L156.346 110.982C156.248 110.942 156.138 110.942 156.04 110.982L122.039 125.065C121.709 125.201 121.709 125.667 122.039 125.804L146.477 135.926C146.807 136.062 146.807 136.529 146.477 136.665L134.35 141.688C134.252 141.729 134.142 141.729 134.044 141.688L108.126 130.954C108.028 130.913 107.918 130.913 107.82 130.954L73.8196 145.037C73.4904 145.173 73.4904 145.64 73.8196 145.776L98.2584 155.897C98.5877 156.034 98.5877 156.5 98.2585 156.637L86.1302 161.66C86.0322 161.7 85.9221 161.7 85.8241 161.66L59.9068 150.926C59.8088 150.885 59.6987 150.885 59.6007 150.926L42.0306 158.202C41.7884 158.302 41.7065 158.604 41.8662 158.812C47.8246 166.567 55.0599 173.289 63.2589 178.663C63.3692 178.736 63.5083 178.749 63.6303 178.698L195.791 123.959C195.913 123.909 196.002 123.801 196.029 123.672C197.225 117.925 197.855 111.97 197.855 105.868C197.855 102.019 197.604 98.2274 197.119 94.51C197.085 94.25 196.813 94.094 196.571 94.1943L170.259 105.093ZM170.258 145.037C169.929 145.173 169.929 145.64 170.258 145.776L184.449 151.652C184.629 151.727 184.838 151.66 184.941 151.494C187.825 146.821 190.281 141.855 192.251 136.65C192.374 136.324 192.049 136.011 191.727 136.144L170.258 145.037ZM122.039 85.1215C121.709 85.2578 121.709 85.7242 122.039 85.8606L146.468 95.9789C146.797 96.1152 146.797 96.5816 146.468 96.718L134.34 101.741C134.242 101.782 134.132 101.782 134.034 101.741L108.126 91.0105C108.028 90.9699 107.918 90.9699 107.82 91.0105L73.8196 105.093C73.4903 105.229 73.4903 105.696 73.8196 105.832L98.2489 115.95C98.5782 116.087 98.5782 116.553 98.2489 116.69L86.1206 121.713C86.0226 121.753 85.9125 121.753 85.8145 121.713L59.9062 110.982C59.8082 110.942 59.6981 110.942 59.6001 110.982L26.3002 124.774C26.1207 124.848 26.0204 125.041 26.0636 125.231C26.1128 125.447 26.1629 125.663 26.2137 125.879C26.2432 126.003 26.331 126.106 26.4496 126.156L50.0293 135.922C50.3586 136.058 50.3586 136.525 50.0293 136.661L37.9011 141.684C37.8031 141.725 37.6929 141.725 37.5949 141.684L31.1782 139.027C30.85 138.891 30.522 139.218 30.6596 139.545C32.1619 143.119 33.8959 146.572 35.8432 149.885C35.944 150.056 36.1559 150.126 36.3397 150.05L194.831 84.4056C195.015 84.3295 195.115 84.1298 195.065 83.9372C194.526 81.8633 193.913 79.8196 193.228 77.8088C193.154 77.5908 192.91 77.4816 192.698 77.5698L182.559 81.7695C182.461 81.8101 182.351 81.8101 182.253 81.7696L156.345 71.0396C156.247 70.999 156.137 70.999 156.039 71.0396L122.039 85.1215ZM122.039 45.1782C121.709 45.3146 121.709 45.781 122.039 45.9174L146.459 56.0312C146.788 56.1676 146.788 56.634 146.459 56.7703L134.331 61.7941C134.233 61.8347 134.123 61.8347 134.025 61.7941L108.126 51.068C108.028 51.0274 107.918 51.0274 107.82 51.068L73.819 65.1499C73.4898 65.2862 73.4898 65.7526 73.819 65.889L98.2393 76.0028C98.5686 76.1392 98.5686 76.6055 98.2393 76.7419L86.1111 81.7651C86.0131 81.8057 85.903 81.8057 85.805 81.7651L59.9062 71.0389C59.8082 70.9984 59.6981 70.9984 59.6001 71.0389L26.6672 84.6788C26.5501 84.7273 26.4628 84.8285 26.4324 84.9516C26.3656 85.2212 26.2999 85.4913 26.2357 85.7619C26.1905 85.9523 26.2907 86.147 26.4715 86.2219L50.0191 95.9744C50.3484 96.1108 50.3484 96.5771 50.0191 96.7135L37.8915 101.737C37.7935 101.777 37.6834 101.777 37.5854 101.737L24.9151 96.4892C24.6688 96.3872 24.3935 96.5502 24.3661 96.8154C24.0582 99.7911 23.8993 102.811 23.8993 105.868C23.8993 108.788 24.0443 111.674 24.3255 114.52C24.3518 114.786 24.6277 114.95 24.8747 114.848L178.04 51.4098C178.287 51.3075 178.366 50.9965 178.196 50.7897C171.907 43.1114 164.329 36.5292 155.794 31.3719C155.685 31.3063 155.552 31.2965 155.435 31.345L122.039 45.1782ZM170.259 65.1498C169.929 65.2862 169.929 65.7526 170.259 65.8889L191.355 74.6261C191.679 74.7603 192.005 74.4427 191.877 74.1163C189.879 69.0236 187.414 64.1656 184.536 59.5938C184.432 59.4294 184.225 59.364 184.045 59.4384L170.259 65.1498ZM110.877 18.8905C98.4931 18.8905 86.7137 21.4788 76.05 26.1438C75.7288 26.2843 75.7354 26.7394 76.0592 26.8735L98.2304 36.0564C98.5596 36.1928 98.5596 36.6592 98.2303 36.7955L86.1009 41.8187C86.0029 41.8593 85.8927 41.8593 85.7947 41.8187L64.0049 32.7933C63.8836 32.743 63.7453 32.7555 63.6352 32.8269C55.5001 38.0993 48.3022 44.6942 42.3443 52.3067C42.1819 52.5143 42.2629 52.8191 42.5065 52.92L50.0102 56.028C50.3395 56.1644 50.3395 56.6307 50.0102 56.7671L37.8826 61.7903C37.7846 61.8309 37.6744 61.8309 37.5764 61.7903L36.5348 61.3586C36.3517 61.2827 36.1404 61.3524 36.0392 61.5229C34.1072 64.7763 32.381 68.1662 30.8792 71.6751C30.739 72.0028 31.0675 72.3322 31.3968 72.1958L143.273 25.8582C143.602 25.7218 143.602 25.2569 143.271 25.1241C133.259 21.1037 122.327 18.8905 110.877 18.8905Z" fill="white"/>
</svg>
