<svg width="475" height="148" viewBox="0 0 475 148" fill="none" xmlns="http://www.w3.org/2000/svg">
<path d="M17.472 44.3972H46.9042C49.5164 44.3972 51.8552 44.792 53.9206 45.5818C56.0467 46.3715 57.8388 47.4649 59.2967 48.8621C60.7547 50.2593 61.8481 51.9906 62.5771 54.0561C63.3668 56.0607 63.7617 58.278 63.7617 60.7079C63.7617 63.1378 63.4276 65.2033 62.7594 66.9042C62.1519 68.5444 61.3014 69.9112 60.208 71.0047C59.1752 72.0981 57.9603 72.9182 56.5631 73.4649C55.2266 74.0117 53.8295 74.3154 52.3715 74.3762V74.9229C53.7687 74.9229 55.257 75.1963 56.8365 75.743C58.4766 76.2897 59.965 77.1706 61.3014 78.3855C62.6986 79.5397 63.8528 81.0584 64.764 82.9416C65.6752 84.764 66.1309 87.0421 66.1309 89.7757C66.1309 92.3271 65.7056 94.7266 64.8552 96.9743C64.0654 99.1612 62.9416 101.075 61.4837 102.715C60.0257 104.355 58.2944 105.661 56.2897 106.633C54.2851 107.544 52.0981 108 49.729 108H17.472V44.3972ZM29.5 97.7944H46.2664C48.5748 97.7944 50.3668 97.2173 51.6425 96.0631C52.9182 94.8481 53.5561 93.1168 53.5561 90.8692V87.771C53.5561 85.5234 52.9182 83.7921 51.6425 82.5771C50.3668 81.3621 48.5748 80.7547 46.2664 80.7547H29.5V97.7944ZM29.5 70.9135H44.3528C46.5397 70.9135 48.2407 70.3364 49.4556 69.1822C50.6706 67.9673 51.278 66.2967 51.278 64.1705V61.3458C51.278 59.2196 50.6706 57.5794 49.4556 56.4252C48.2407 55.2103 46.5397 54.6028 44.3528 54.6028H29.5V70.9135ZM116.711 44.3972L137.669 108H125.094L115.344 77.0187L109.513 55.7874H109.239L103.407 77.0187L93.6574 108H81.4471L102.405 44.3972H116.711ZM175.956 109.093C170.489 109.093 165.842 108.121 162.015 106.178C158.249 104.234 154.999 101.682 152.265 98.5234L160.375 90.6869C162.562 93.2383 164.992 95.1822 167.664 96.5187C170.398 97.8551 173.405 98.5234 176.685 98.5234C180.391 98.5234 183.185 97.7336 185.069 96.1542C186.952 94.514 187.893 92.3271 187.893 89.5935C187.893 87.4673 187.286 85.736 186.071 84.3995C184.856 83.0631 182.578 82.0911 179.237 81.4836L173.223 80.5724C160.527 78.5677 154.178 72.4019 154.178 62.0748C154.178 59.2196 154.695 56.6378 155.728 54.3294C156.821 52.021 158.37 50.0467 160.375 48.4065C162.379 46.7663 164.779 45.521 167.573 44.6705C170.428 43.7593 173.648 43.3037 177.232 43.3037C182.031 43.3037 186.223 44.0934 189.807 45.6729C193.391 47.2523 196.459 49.5911 199.01 52.6892L190.809 60.4346C189.23 58.4906 187.316 56.9112 185.069 55.6963C182.821 54.4813 179.996 53.8738 176.594 53.8738C173.132 53.8738 170.52 54.542 168.758 55.8785C167.057 57.1542 166.206 58.9766 166.206 61.3458C166.206 63.7757 166.905 65.5677 168.302 66.722C169.699 67.8762 171.947 68.7266 175.045 69.2734L180.968 70.3668C187.407 71.521 192.146 73.5864 195.183 76.5631C198.281 79.479 199.83 83.5794 199.83 88.8645C199.83 91.9019 199.284 94.6659 198.19 97.1565C197.157 99.5864 195.608 101.713 193.543 103.535C191.538 105.297 189.048 106.664 186.071 107.636C183.155 108.607 179.784 109.093 175.956 109.093ZM241.503 79.2056L233.028 89.229V108H221V44.3972H233.028V75.743H233.484L242.505 63.8061L258.269 44.3972H272.12L249.977 70.9135L273.942 108H259.636L241.503 79.2056ZM291.869 108V44.3972H333.785V55.0584H303.897V70.4579H330.322V81.1192H303.897V97.3388H333.785V108H291.869ZM380.585 55.0584V108H368.557V55.0584H350.515V44.3972H398.628V55.0584H380.585ZM436.293 109.093C430.826 109.093 426.179 108.121 422.352 106.178C418.586 104.234 415.336 101.682 412.602 98.5234L420.712 90.6869C422.899 93.2383 425.329 95.1822 428.001 96.5187C430.735 97.8551 433.742 98.5234 437.022 98.5234C440.728 98.5234 443.522 97.7336 445.406 96.1542C447.289 94.514 448.23 92.3271 448.23 89.5935C448.23 87.4673 447.623 85.736 446.408 84.3995C445.193 83.0631 442.915 82.0911 439.574 81.4836L433.56 80.5724C420.864 78.5677 414.515 72.4019 414.515 62.0748C414.515 59.2196 415.032 56.6378 416.065 54.3294C417.158 52.021 418.707 50.0467 420.712 48.4065C422.716 46.7663 425.116 45.521 427.91 44.6705C430.765 43.7593 433.985 43.3037 437.569 43.3037C442.368 43.3037 446.56 44.0934 450.144 45.6729C453.728 47.2523 456.796 49.5911 459.347 52.6892L451.146 60.4346C449.567 58.4906 447.653 56.9112 445.406 55.6963C443.158 54.4813 440.333 53.8738 436.931 53.8738C433.469 53.8738 430.857 54.542 429.095 55.8785C427.394 57.1542 426.543 58.9766 426.543 61.3458C426.543 63.7757 427.242 65.5677 428.639 66.722C430.036 67.8762 432.284 68.7266 435.382 69.2734L441.305 70.3668C447.744 71.521 452.483 73.5864 455.52 76.5631C458.618 79.479 460.167 83.5794 460.167 88.8645C460.167 91.9019 459.621 94.6659 458.527 97.1565C457.494 99.5864 455.945 101.713 453.88 103.535C451.875 105.297 449.385 106.664 446.408 107.636C443.492 108.607 440.121 109.093 436.293 109.093Z" fill="black"/>
</svg>
